<svg width="1086" height="335" viewBox="0 0 1086 335" fill="none" xmlns="http://www.w3.org/2000/svg">
<path d="M93.5 158.875C93.5 151.5 94.8542 144.75 97.5625 138.625C100.271 132.5 104.062 127.25 108.938 122.875C113.854 118.458 119.729 115.042 126.562 112.625C133.438 110.208 141.042 109 149.375 109C157.667 109 165.25 110.208 172.125 112.625C179 115.042 184.875 118.458 189.75 122.875C194.667 127.25 198.479 132.5 201.188 138.625C203.896 144.75 205.25 151.5 205.25 158.875C205.25 166.292 203.896 173.104 201.188 179.312C198.479 185.479 194.667 190.792 189.75 195.25C184.875 199.708 179 203.188 172.125 205.688C165.25 208.146 157.667 209.375 149.375 209.375C141.042 209.375 133.438 208.146 126.562 205.688C119.729 203.188 113.854 199.708 108.938 195.25C104.062 190.792 100.271 185.479 97.5625 179.312C94.8542 173.104 93.5 166.292 93.5 158.875ZM113.312 158.875C113.312 163.917 114.208 168.458 116 172.5C117.833 176.542 120.354 180 123.562 182.875C126.812 185.708 130.625 187.896 135 189.438C139.417 190.979 144.208 191.75 149.375 191.75C154.542 191.75 159.312 190.979 163.688 189.438C168.104 187.896 171.917 185.708 175.125 182.875C178.333 180 180.854 176.542 182.688 172.5C184.521 168.458 185.438 163.917 185.438 158.875C185.438 153.833 184.521 149.312 182.688 145.312C180.854 141.312 178.333 137.938 175.125 135.188C171.917 132.396 168.104 130.271 163.688 128.812C159.312 127.354 154.542 126.625 149.375 126.625C144.208 126.625 139.417 127.354 135 128.812C130.625 130.271 126.812 132.396 123.562 135.188C120.354 137.938 117.833 141.312 116 145.312C114.208 149.312 113.312 153.833 113.312 158.875Z" fill="black"/>
<path d="M214.188 110.312H236.125L266.812 184.812L297.5 110.312H319.438L276.625 208H257L214.188 110.312Z" fill="black"/>
<path d="M334.125 110.312H417.312V127.688H353.938V147.188H410.062V163.5H353.938V190.688H418.625V208H334.125V110.312Z" fill="black"/>
<path d="M440.625 110.312H490.312C497.812 110.312 504.312 111.104 509.812 112.688C515.312 114.229 519.875 116.479 523.5 119.438C527.125 122.396 529.812 126 531.562 130.25C533.354 134.5 534.25 139.312 534.25 144.688C534.25 148.312 533.812 151.771 532.938 155.062C532.062 158.312 530.708 161.312 528.875 164.062C527.083 166.812 524.812 169.271 522.062 171.438C519.312 173.562 516.083 175.333 512.375 176.75L533.625 208H509.375L491 180.25H490.438L460.438 180.188V208H440.625V110.312ZM490.812 163.062C494.562 163.062 497.833 162.625 500.625 161.75C503.458 160.875 505.812 159.646 507.688 158.062C509.604 156.479 511.021 154.562 511.938 152.312C512.896 150.021 513.375 147.479 513.375 144.688C513.375 139.229 511.5 135.021 507.75 132.062C504 129.062 498.354 127.562 490.812 127.562H460.438V163.062H490.812Z" fill="black"/>
<path d="M557.75 110.312H577.562V190.625H634.375V208H557.75V110.312Z" fill="black"/>
<path d="M686.938 110.312H707.938L755.188 208H734.375L726.562 191.562H669.5L661.938 208H641.062L686.938 110.312ZM718.75 175.25L697.625 130.875L677.062 175.25H718.75Z" fill="black"/>
<path d="M770.25 110.312H790.062L850.938 142.188V110.312H870.75V208H850.938V163.188L790.062 131.5V208H770.25V110.312Z" fill="black"/>
<path d="M898.375 110.312H934.188C944.646 110.312 953.729 111.438 961.438 113.688C969.146 115.938 975.521 119.167 980.562 123.375C985.646 127.542 989.417 132.625 991.875 138.625C994.375 144.583 995.625 151.292 995.625 158.75C995.625 165.833 994.396 172.396 991.938 178.438C989.479 184.438 985.729 189.646 980.688 194.062C975.646 198.438 969.271 201.875 961.562 204.375C953.854 206.833 944.771 208.062 934.312 208.062L898.375 208V110.312ZM939.062 190.875C944.979 190.875 950.167 190.125 954.625 188.625C959.083 187.083 962.792 184.917 965.75 182.125C968.75 179.333 971 175.958 972.5 172C974 168.042 974.75 163.625 974.75 158.75C974.75 153.958 974 149.646 972.5 145.812C971 141.938 968.75 138.667 965.75 136C962.792 133.292 959.083 131.208 954.625 129.75C950.167 128.292 944.979 127.562 939.062 127.562H918.188V190.875H939.062Z" fill="black"/>
<path d="M442.055 261.102C443.383 261.852 444.727 262.531 446.086 263.141C447.461 263.734 448.883 264.242 450.352 264.664C451.82 265.07 453.359 265.383 454.969 265.602C456.594 265.82 458.32 265.93 460.148 265.93C462.352 265.93 464.227 265.789 465.773 265.508C467.32 265.211 468.578 264.812 469.547 264.312C470.531 263.797 471.242 263.188 471.68 262.484C472.133 261.781 472.359 261.016 472.359 260.188C472.359 258.859 471.805 257.812 470.695 257.047C469.586 256.266 467.875 255.875 465.562 255.875C464.547 255.875 463.477 255.945 462.352 256.086C461.227 256.211 460.086 256.352 458.93 256.508C457.789 256.664 456.656 256.812 455.531 256.953C454.422 257.078 453.375 257.141 452.391 257.141C450.75 257.141 449.172 256.93 447.656 256.508C446.156 256.086 444.82 255.453 443.648 254.609C442.492 253.766 441.57 252.711 440.883 251.445C440.195 250.18 439.852 248.703 439.852 247.016C439.852 246.016 439.984 245.023 440.25 244.039C440.531 243.055 440.969 242.117 441.562 241.227C442.172 240.32 442.953 239.484 443.906 238.719C444.859 237.938 446.008 237.266 447.352 236.703C448.711 236.141 450.273 235.703 452.039 235.391C453.82 235.062 455.844 234.898 458.109 234.898C459.75 234.898 461.398 234.992 463.055 235.18C464.711 235.352 466.32 235.602 467.883 235.93C469.461 236.258 470.977 236.656 472.43 237.125C473.883 237.578 475.234 238.086 476.484 238.648L473.227 244.648C472.195 244.195 471.086 243.781 469.898 243.406C468.711 243.016 467.469 242.68 466.172 242.398C464.875 242.117 463.531 241.898 462.141 241.742C460.766 241.57 459.359 241.484 457.922 241.484C455.875 241.484 454.188 241.633 452.859 241.93C451.547 242.227 450.5 242.609 449.719 243.078C448.938 243.531 448.391 244.047 448.078 244.625C447.781 245.188 447.633 245.75 447.633 246.312C447.633 247.406 448.125 248.305 449.109 249.008C450.094 249.695 451.594 250.039 453.609 250.039C454.422 250.039 455.352 249.984 456.398 249.875C457.461 249.75 458.57 249.617 459.727 249.477C460.898 249.336 462.086 249.211 463.289 249.102C464.508 248.977 465.688 248.914 466.828 248.914C468.984 248.914 470.891 249.156 472.547 249.641C474.219 250.125 475.617 250.82 476.742 251.727C477.867 252.617 478.719 253.703 479.297 254.984C479.875 256.25 480.164 257.672 480.164 259.25C480.164 261.359 479.672 263.242 478.688 264.898C477.719 266.539 476.328 267.93 474.516 269.07C472.719 270.195 470.547 271.055 468 271.648C465.453 272.227 462.617 272.516 459.492 272.516C457.43 272.516 455.414 272.383 453.445 272.117C451.477 271.867 449.586 271.508 447.773 271.039C445.977 270.555 444.258 269.984 442.617 269.328C440.992 268.656 439.484 267.922 438.094 267.125L442.055 261.102Z" fill="black"/>
<path d="M499.383 241.883H485.859V235.367H520.336V241.883H506.812V272H499.383V241.883Z" fill="black"/>
<path d="M540.773 235.367H548.648L566.367 272H558.562L555.633 265.836H534.234L531.398 272H523.57L540.773 235.367ZM552.703 259.719L544.781 243.078L537.07 259.719H552.703Z" fill="black"/>
<path d="M569.836 253.461C569.836 250.852 570.328 248.422 571.312 246.172C572.297 243.906 573.719 241.945 575.578 240.289C577.453 238.617 579.734 237.305 582.422 236.352C585.125 235.398 588.18 234.922 591.586 234.922C594.57 234.922 597.305 235.227 599.789 235.836C602.289 236.43 604.609 237.344 606.75 238.578L603.328 244.203C602.688 243.781 601.945 243.406 601.102 243.078C600.273 242.75 599.383 242.477 598.43 242.258C597.492 242.023 596.516 241.844 595.5 241.719C594.5 241.594 593.508 241.531 592.523 241.531C590.148 241.531 588.031 241.828 586.172 242.422C584.312 243 582.742 243.82 581.461 244.883C580.195 245.93 579.227 247.188 578.555 248.656C577.898 250.109 577.57 251.711 577.57 253.461C577.57 255.273 577.914 256.938 578.602 258.453C579.289 259.969 580.281 261.281 581.578 262.391C582.891 263.484 584.484 264.344 586.359 264.969C588.25 265.578 590.383 265.883 592.758 265.883C593.836 265.883 594.906 265.805 595.969 265.648C597.031 265.492 598.055 265.281 599.039 265.016C600.039 264.734 601 264.406 601.922 264.031C602.844 263.641 603.703 263.219 604.5 262.766L607.922 268.391C605.922 269.672 603.609 270.68 600.984 271.414C598.359 272.133 595.57 272.492 592.617 272.492C588.852 272.492 585.547 272.008 582.703 271.039C579.859 270.055 577.484 268.711 575.578 267.008C573.672 265.289 572.234 263.273 571.266 260.961C570.312 258.633 569.836 256.133 569.836 253.461Z" fill="black"/>
<path d="M616.125 235.367H623.555V254.328L642.891 235.367H652.406L634.359 252.852L652.406 272H642.516L629.016 258.031L623.555 263.305V272H616.125V235.367Z" fill="black"/>
<path d="M510.875 70.1602H505.865V66.2578H510.875V59.8066H516.078V66.2578H521.088V70.1602H516.078V87H510.875V70.1602Z" fill="black"/>
<path d="M525.711 57.8555H530.914V67.8398C532.004 67.2422 533.217 66.7676 534.553 66.416C535.9 66.0645 537.312 65.8887 538.789 65.8887C540.5 65.8887 542.035 66.1406 543.395 66.6445C544.766 67.1484 545.926 67.875 546.875 68.8242C547.824 69.7617 548.551 70.9043 549.055 72.252C549.57 73.5996 549.828 75.1172 549.828 76.8047V87H544.643V77.0156C544.643 76.0312 544.484 75.1348 544.168 74.3262C543.852 73.5059 543.389 72.8027 542.779 72.2168C542.17 71.6309 541.426 71.1797 540.547 70.8633C539.68 70.5352 538.695 70.3711 537.594 70.3711C536.27 70.3711 535.039 70.582 533.902 71.0039C532.766 71.4258 531.77 71.959 530.914 72.6035V87H525.711V57.8555Z" fill="black"/>
<path d="M554.68 76.5586C554.68 75.1523 554.967 73.8105 555.541 72.5332C556.115 71.2441 556.941 70.1074 558.02 69.123C559.098 68.1387 560.416 67.3535 561.975 66.7676C563.545 66.1816 565.326 65.8887 567.318 65.8887C569.299 65.8887 571.08 66.1875 572.662 66.7852C574.256 67.3711 575.604 68.1797 576.705 69.2109C577.818 70.2422 578.668 71.4551 579.254 72.8496C579.852 74.2441 580.15 75.7383 580.15 77.332C580.15 77.5312 580.145 77.748 580.133 77.9824C580.133 78.2051 580.121 78.4102 580.098 78.5977H560.48C560.703 79.2188 561.061 79.7871 561.553 80.3027C562.057 80.8184 562.684 81.2637 563.434 81.6387C564.184 82.0137 565.051 82.3066 566.035 82.5176C567.02 82.7168 568.109 82.8164 569.305 82.8164C570.5 82.8164 571.689 82.6934 572.873 82.4473C574.057 82.1895 575.188 81.8672 576.266 81.4805L578.023 85.4531C577.344 85.7695 576.652 86.0508 575.949 86.2969C575.258 86.5312 574.531 86.7305 573.77 86.8945C573.02 87.0469 572.229 87.1641 571.396 87.2461C570.576 87.3281 569.709 87.3691 568.795 87.3691C566.463 87.3691 564.418 87.0879 562.66 86.5254C560.902 85.9629 559.432 85.1953 558.248 84.2227C557.064 83.25 556.174 82.1074 555.576 80.7949C554.979 79.4824 554.68 78.0703 554.68 76.5586ZM574.631 74.5371C574.443 73.9629 574.15 73.4297 573.752 72.9375C573.365 72.4336 572.879 72 572.293 71.6367C571.707 71.2617 571.027 70.9688 570.254 70.7578C569.48 70.5469 568.631 70.4414 567.705 70.4414C566.721 70.4414 565.824 70.5527 565.016 70.7754C564.207 70.998 563.498 71.2969 562.889 71.6719C562.279 72.0469 561.77 72.4805 561.359 72.9727C560.961 73.4648 560.668 73.9863 560.48 74.5371H574.631Z" fill="black"/>
</svg>
